<svg width="32.000000" height="32.000000" viewBox="0 0 32 32" fill="none" xmlns="http://www.w3.org/2000/svg" xmlns:xlink="http://www.w3.org/1999/xlink">
	<desc>
			Created with Pixso.
	</desc>
	<defs>
		<clipPath id="clip74_462">
			<rect id="uit:facebook-f" width="32.000000" height="32.000000" fill="white" fill-opacity="0"/>
		</clipPath>
	</defs>
	<rect id="uit:facebook-f" width="32.000000" height="32.000000" fill="#FFFFFF" fill-opacity="0"/>
	<g clip-path="url(#clip74_462)">
		<path id="Vector" d="M23.9868 2.12793C22.6416 1.98535 21.29 1.91602 19.9375 1.91992C15.4536 1.91992 12.6665 4.77588 12.6665 9.37354L12.6665 12.4946L8.8999 12.4946C8.72314 12.4946 8.55371 12.5649 8.42871 12.6899C8.30371 12.8149 8.2334 12.9844 8.2334 13.1616L8.2334 18.2949C8.2334 18.4717 8.30371 18.6411 8.42871 18.7661C8.55371 18.8911 8.72314 18.9614 8.8999 18.9614L12.6665 18.9614L12.6665 29.2549C12.6665 29.4316 12.7368 29.6011 12.8618 29.7261C12.9868 29.8511 13.1567 29.9214 13.3335 29.9214L18.6372 29.9214C18.8145 29.9214 18.9839 29.8511 19.1089 29.7261C19.2339 29.6011 19.3042 29.4316 19.3042 29.2549L19.3042 18.9614L23.0586 18.9614C23.2207 18.9614 23.377 18.9028 23.4985 18.7959C23.6201 18.6895 23.6992 18.542 23.7202 18.3813L24.3828 13.248C24.395 13.1538 24.3872 13.0586 24.3594 12.9678C24.332 12.877 24.2852 12.793 24.2227 12.7217C24.1602 12.6504 24.083 12.5933 23.9966 12.5542C23.9102 12.5151 23.8164 12.4946 23.7212 12.4946L19.3042 12.4946L19.3042 9.88281C19.3042 8.58936 19.564 8.04932 21.1816 8.04932L23.8999 8.04932C24.0767 8.04932 24.2466 7.979 24.3716 7.854C24.4966 7.729 24.5669 7.55957 24.5669 7.38281L24.5669 2.78955C24.5669 2.62744 24.5078 2.47119 24.4014 2.34961C24.2944 2.22803 24.147 2.14893 23.9868 2.12793ZM23.2334 6.71484L21.1802 6.71631C18.3042 6.71631 17.9707 8.52393 17.9707 9.88281L17.9707 13.1626C17.9707 13.3394 18.041 13.5088 18.1655 13.6338C18.29 13.7588 18.4595 13.8291 18.6362 13.8296L22.9639 13.8296L22.4722 17.6294L18.6372 17.6294C18.4604 17.6294 18.291 17.6997 18.166 17.8247C18.041 17.9497 17.9707 18.1191 17.9707 18.2959L17.9707 28.5869L14 28.5869L14 18.2959C14 18.1191 13.9297 17.9497 13.8047 17.8247C13.6797 17.6997 13.5103 17.6294 13.3335 17.6294L9.56787 17.6294L9.56787 13.8296L13.3335 13.8296C13.5103 13.8296 13.6797 13.7593 13.8047 13.6343C13.9297 13.5093 14 13.3394 14 13.1626L14 9.37354C14 5.5415 16.2202 3.25342 19.9375 3.25342C21.2827 3.25342 22.4976 3.32666 23.2334 3.39062L23.2334 6.71484Z" fill="#011C44" fill-opacity="1.000000" fill-rule="nonzero"/>
	</g>
</svg>
