<svg width="32.000000" height="32.000000" viewBox="0 0 32 32" fill="none" xmlns="http://www.w3.org/2000/svg" xmlns:xlink="http://www.w3.org/1999/xlink">
	<desc>
			Created with Pixso.
	</desc>
	<defs>
		<clipPath id="clip74_460">
			<rect id="ph:instagram-logo-light" width="32.000000" height="32.000000" fill="white" fill-opacity="0"/>
		</clipPath>
	</defs>
	<rect id="ph:instagram-logo-light" width="32.000000" height="32.000000" fill="#FFFFFF" fill-opacity="0"/>
	<g clip-path="url(#clip74_460)">
		<path id="Vector" d="M16 10.25C14.8628 10.25 13.751 10.5874 12.8057 11.2192C11.8599 11.8511 11.123 12.749 10.6875 13.7998C10.2524 14.8501 10.1387 16.0063 10.3604 17.1216C10.5825 18.2373 11.1299 19.2617 11.9341 20.0659C12.7383 20.8701 13.7627 21.4175 14.8784 21.6396C15.9937 21.8613 17.1499 21.7476 18.2002 21.3125C19.251 20.877 20.1489 20.1401 20.7808 19.1943C21.4126 18.249 21.75 17.1372 21.75 16C21.75 14.4751 21.144 13.0127 20.0659 11.9341C18.9873 10.856 17.5249 10.25 16 10.25ZM16 20.25C15.1597 20.25 14.3379 20.001 13.6387 19.5337C12.9399 19.0669 12.395 18.4028 12.0737 17.6265C11.752 16.8496 11.6675 15.9951 11.8315 15.1709C11.9956 14.3467 12.4004 13.5894 12.9946 12.9946C13.5894 12.4004 14.3467 11.9956 15.1709 11.8315C15.9951 11.6675 16.8496 11.752 17.6265 12.0737C18.4028 12.395 19.0669 12.9399 19.5337 13.6387C20.001 14.3379 20.25 15.1597 20.25 16C20.2466 17.126 19.7979 18.2051 19.0015 19.0015C18.2051 19.7979 17.126 20.2466 16 20.25ZM21.5 3.75L10.5 3.75C8.70996 3.75 6.99268 4.46094 5.72705 5.72705C4.46094 6.99268 3.75 8.70996 3.75 10.5L3.75 21.5C3.75 23.29 4.46094 25.0073 5.72705 26.2729C6.99268 27.5391 8.70996 28.25 10.5 28.25L21.5 28.25C23.29 28.25 25.0073 27.5391 26.2729 26.2729C27.5391 25.0073 28.25 23.29 28.25 21.5L28.25 10.5C28.25 8.70996 27.5391 6.99268 26.2729 5.72705C25.0073 4.46094 23.29 3.75 21.5 3.75ZM26.75 21.5C26.75 22.8926 26.1968 24.2275 25.2124 25.2124C24.2275 26.1968 22.8926 26.75 21.5 26.75L10.5 26.75C9.10742 26.75 7.77246 26.1968 6.7876 25.2124C5.80322 24.2275 5.25 22.8926 5.25 21.5L5.25 10.5C5.25 9.10742 5.80322 7.77246 6.7876 6.7876C7.77246 5.80322 9.10742 5.25 10.5 5.25L21.5 5.25C22.8926 5.25 24.2275 5.80322 25.2124 6.7876C26.1968 7.77246 26.75 9.10742 26.75 10.5L26.75 21.5ZM23.75 9.5C23.75 9.74707 23.6768 9.98877 23.5396 10.1943C23.4019 10.3999 23.2065 10.5601 22.9785 10.6548C22.75 10.7495 22.4985 10.7744 22.2563 10.7261C22.0137 10.6777 21.791 10.5586 21.6162 10.3838C21.4414 10.209 21.3223 9.98633 21.2739 9.74365C21.2256 9.50146 21.2505 9.25 21.3452 9.02148C21.4399 8.79346 21.6001 8.59814 21.8057 8.46045C22.0112 8.32324 22.2529 8.25 22.5 8.25C22.8315 8.25 23.1494 8.38184 23.3838 8.61621C23.6182 8.85059 23.75 9.16846 23.75 9.5Z" fill="#011C44" fill-opacity="1.000000" fill-rule="nonzero"/>
	</g>
</svg>
