<svg width="32.000000" height="32.000000" viewBox="0 0 32 32" fill="none" xmlns="http://www.w3.org/2000/svg" xmlns:xlink="http://www.w3.org/1999/xlink">
	<desc>
			Created with Pixso.
	</desc>
	<defs>
		<clipPath id="clip74_466">
			<rect id="telephone-receiver_icon-icons.com_56033 1" width="32.000000" height="32.000000" fill="white" fill-opacity="0"/>
		</clipPath>
	</defs>
	<rect id="telephone-receiver_icon-icons.com_56033 1" width="32.000000" height="32.000000" fill="#FFFFFF" fill-opacity="0"/>
	<g clip-path="url(#clip74_466)">
		<path id="Vector" d="M27.6543 22.9575L27.481 22.7412C26.1089 21.0068 24.9624 20.104 23.9785 19.9854C23.1279 19.8691 22.3052 20.4575 21.4302 21.0625L20.4956 21.6465C20.3838 21.7026 20.2729 21.748 20.1689 21.7788C19.6226 21.9331 18.2422 22.0239 17.4609 21.3091C16.5518 20.4775 15.1411 18.9546 14.0439 17.624C12.9956 16.2466 11.8438 14.5293 11.2422 13.4478C10.7344 12.5317 11.1597 11.2505 11.4438 10.7759C11.4995 10.6826 11.5732 10.5908 11.6543 10.5L12.4785 9.73877C12.4902 9.72656 12.4956 9.71191 12.5063 9.70117C12.5146 9.69336 12.5278 9.6958 12.5371 9.68945C13.2812 9.06152 14.0503 8.41455 14.1558 7.58398C14.2798 6.60791 13.6729 5.28809 12.2983 3.55469L12.1304 3.33887C11.2798 2.24805 9.99316 0.598633 8.14502 0.870605C7.41846 0.978516 6.76904 1.22656 6.09961 1.64648C6.09326 1.65088 6.08887 1.65869 6.08398 1.6626C6.07861 1.6665 6.07178 1.6665 6.06641 1.67041L5.13428 2.36133C5.125 2.3667 5.11963 2.37842 5.11035 2.38672C5.10352 2.39355 5.09326 2.39453 5.08496 2.40137C4.97705 2.49219 4.86914 2.58545 4.76221 2.68115C3.81689 3.52393 1.77051 5.9707 3.1665 10.4961C4.06787 13.4185 5.92627 16.8291 8.5542 20.3784L8.5293 20.3999L9.97852 22.2051L9.99023 22.1958C12.8398 25.5664 15.7397 28.1719 18.397 29.7495C20.1704 30.8027 21.7197 31.1509 22.9946 31.1509C24.6719 31.1509 25.873 30.5479 26.4756 30.1558L26.8545 29.9028C26.897 29.8735 26.9277 29.832 26.9585 29.7944L27.7837 29.1733C27.793 29.1655 27.7983 29.1548 27.8076 29.1465C27.8115 29.1426 27.8184 29.144 27.8237 29.1401C28.4106 28.604 28.8169 28.0425 29.0996 27.3774C29.8315 25.6719 28.521 24.0386 27.6543 22.9575ZM28.1196 26.9585C27.8999 27.4761 27.5786 27.916 27.1143 28.3428L25.8862 29.2666C24.7744 29.9893 22.397 30.8828 18.9438 28.832C16.2866 27.2549 13.3608 24.5879 10.4824 21.1201L9.70361 20.1357C6.99316 16.5415 5.08643 13.0986 4.18652 10.1812C3.01709 6.38818 4.49023 4.35352 5.47705 3.47461C5.57715 3.38379 5.67725 3.2998 5.77588 3.21582L5.77979 3.21191L6.67432 2.54932C7.21826 2.20508 7.72266 2.01318 8.30225 1.92529C9.54102 1.73877 10.5493 3.04541 11.2891 3.99463L11.4624 4.21484C12.9985 6.15186 13.1465 7.07324 13.0986 7.44922C13.0449 7.8667 12.4106 8.40137 11.8506 8.87207L11.772 8.93848C11.769 8.94141 11.7676 8.94531 11.7651 8.94775C11.7612 8.95068 11.7568 8.95215 11.7529 8.95459L10.9009 9.74268C10.8955 9.74805 10.8931 9.75488 10.8877 9.76123C10.8823 9.76807 10.8716 9.77051 10.8662 9.77734C10.7344 9.92529 10.6211 10.0732 10.5293 10.2266C10.0503 11.0278 9.59863 12.6841 10.3115 13.9653C10.9346 15.0854 12.1196 16.8545 13.209 18.2842C14.3477 19.6655 15.7998 21.2334 16.7412 22.0933C17.4463 22.7373 18.4277 22.9531 19.2769 22.9531C19.7319 22.9531 20.1489 22.8906 20.4648 22.8013C20.6318 22.7534 20.8037 22.6841 20.981 22.5972C20.9917 22.5918 20.9971 22.5825 21.0078 22.5762C21.0132 22.5732 21.021 22.5747 21.0264 22.5708L22.0156 21.9521C22.0479 21.9307 22.0688 21.9028 22.0957 21.876L22.1079 21.8892C22.7173 21.4668 23.4116 20.9707 23.8462 21.0425C24.2319 21.0894 25.1064 21.46 26.645 23.4028L26.8223 23.6255C27.5718 24.5601 28.5986 25.8398 28.1196 26.9585Z" fill="#011C44" fill-opacity="1.000000" fill-rule="nonzero"/>
	</g>
</svg>
